<?xml version="1.0" standalone="no"?>
<!DOCTYPE svg PUBLIC "-//W3C//DTD SVG 20010904//EN"
 "http://www.w3.org/TR/2001/REC-SVG-20010904/DTD/svg10.dtd">
<svg version="1.0" xmlns="http://www.w3.org/2000/svg"
 width="640.000000pt" height="640.000000pt" viewBox="0 0 640.000000 640.000000"
 preserveAspectRatio="xMidYMid meet">
<metadata>
Created by potrace 1.14, written by Peter Selinger 2001-2017
</metadata>
<g transform="translate(0.000000,640.000000) scale(0.100000,-0.100000)"
fill="#000000" stroke="none">
<path d="M2778 5965 c-1 -2 -50 -6 -108 -9 -58 -4 -116 -9 -130 -11 -14 -2
-54 -7 -90 -11 -36 -3 -67 -7 -70 -9 -3 -1 -32 -6 -65 -10 -138 -15 -378 -82
-569 -157 -87 -34 -335 -151 -376 -178 -8 -5 -58 -34 -110 -65 -448 -266 -708
-587 -795 -980 -19 -84 -25 -259 -13 -355 10 -77 41 -194 72 -270 30 -74 31
-87 10 -137 -42 -101 -125 -113 -319 -45 -131 46 -184 52 -202 24 -17 -29 -7
-119 19 -170 30 -57 74 -81 167 -89 l70 -6 -44 -28 c-51 -33 -81 -84 -71 -123
3 -14 26 -41 51 -59 l44 -34 -110 -146 -111 -146 7 -58 c11 -108 -3 -98 147
-99 193 -1 363 -45 308 -79 -16 -10 -77 -127 -89 -170 -22 -77 -24 -158 -6
-221 9 -32 21 -64 26 -70 5 -6 11 -82 13 -170 2 -87 7 -175 11 -194 27 -135
105 -340 159 -420 65 -96 203 -210 452 -373 107 -70 408 -247 420 -247 2 0 48
-22 103 -49 116 -57 211 -95 406 -161 365 -125 615 -184 875 -207 107 -10 396
-9 475 0 33 4 80 10 105 13 25 2 63 7 86 10 38 4 53 7 129 19 17 2 48 7 70 10
22 3 75 13 118 21 42 9 90 18 105 20 59 11 210 45 262 60 30 9 63 18 73 20 31
6 190 54 245 74 28 11 78 30 110 41 84 32 263 123 324 165 333 232 515 496
589 859 10 54 13 72 18 112 0 6 13 18 29 26 73 38 86 47 104 74 32 47 68 131
88 206 35 130 31 260 -13 401 -17 53 -21 85 -17 126 7 68 6 209 -5 366 l-7
121 50 -8 c95 -15 159 -41 238 -100 43 -31 88 -59 101 -62 55 -10 178 83 226
171 35 64 40 117 21 212 -19 93 -89 268 -144 361 -99 166 -284 307 -451 344
-31 7 -31 8 -24 54 17 115 13 279 -9 386 -41 201 -156 460 -264 594 -147 184
-417 365 -807 541 -222 100 -585 210 -780 236 -27 3 -53 8 -56 10 -3 2 -35 6
-70 10 -35 3 -66 7 -69 9 -3 2 -52 6 -110 10 -58 4 -116 9 -130 12 -29 5 -686
13 -692 8z"/>
</g>
</svg>
